REM DIRINDEX 1\4,1\2\5,1\2\6,1\3\7,1\3\8
REM DIRNAME cjc124,folder01,folder02,folder03,folder04,folder05,folder06,folder07
TITLE ""
FILE "029_Day15_Check2_Phrases.mp3" MP3
  TRACK 01 AUDIO
    TITLE "0:"
    INDEX 01 00:00:00
  TRACK 02 AUDIO
    TITLE "4:cjc124_0927"
    INDEX 01 00:00:31
  TRACK 03 AUDIO
    TITLE "0:"
    INDEX 01 00:01:48
  TRACK 04 AUDIO
    TITLE "5:cjc124_0928"
    INDEX 01 00:02:02
  TRACK 05 AUDIO
    TITLE "0:"
    INDEX 01 00:03:61
  TRACK 06 AUDIO
    TITLE "6:cjc124_0929"
    INDEX 01 00:04:05
  TRACK 07 AUDIO
    TITLE "0:"
    INDEX 01 00:05:61
  TRACK 08 AUDIO
    TITLE "5:cjc124_0930"
    INDEX 01 00:06:24
  TRACK 09 AUDIO
    TITLE "0:"
    INDEX 01 00:08:15
  TRACK 10 AUDIO
    TITLE "6:cjc124_0931"
    INDEX 01 00:08:34
  TRACK 11 AUDIO
    TITLE "0:"
    INDEX 01 00:10:10
  TRACK 12 AUDIO
    TITLE "5:cjc124_0932"
    INDEX 01 00:10:51
  TRACK 13 AUDIO
    TITLE "0:"
    INDEX 01 00:12:40
  TRACK 14 AUDIO
    TITLE "6:cjc124_0933"
    INDEX 01 00:12:58
  TRACK 15 AUDIO
    TITLE "0:"
    INDEX 01 00:14:49
  TRACK 16 AUDIO
    TITLE "5:cjc124_0934"
    INDEX 01 00:15:13
  TRACK 17 AUDIO
    TITLE "0:"
    INDEX 01 00:17:21
  TRACK 18 AUDIO
    TITLE "6:cjc124_0935"
    INDEX 01 00:17:39
  TRACK 19 AUDIO
    TITLE "0:"
    INDEX 01 00:19:42
  TRACK 20 AUDIO
    TITLE "5:cjc124_0936"
    INDEX 01 00:20:10
  TRACK 21 AUDIO
    TITLE "0:"
    INDEX 01 00:21:51
  TRACK 22 AUDIO
    TITLE "6:cjc124_0937"
    INDEX 01 00:21:72
  TRACK 23 AUDIO
    TITLE "0:"
    INDEX 01 00:23:67
  TRACK 24 AUDIO
    TITLE "5:cjc124_0938"
    INDEX 01 00:24:29
  TRACK 25 AUDIO
    TITLE "0:"
    INDEX 01 00:26:18
  TRACK 26 AUDIO
    TITLE "6:cjc124_0939"
    INDEX 01 00:26:36
  TRACK 27 AUDIO
    TITLE "0:"
    INDEX 01 00:28:06
  TRACK 28 AUDIO
    TITLE "5:cjc124_0940"
    INDEX 01 00:28:45
  TRACK 29 AUDIO
    TITLE "0:"
    INDEX 01 00:30:55
  TRACK 30 AUDIO
    TITLE "6:cjc124_0941"
    INDEX 01 00:31:12
  TRACK 31 AUDIO
    TITLE "0:"
    INDEX 01 00:33:54
  TRACK 32 AUDIO
    TITLE "5:cjc124_0942"
    INDEX 01 00:34:18
  TRACK 33 AUDIO
    TITLE "0:"
    INDEX 01 00:35:66
  TRACK 34 AUDIO
    TITLE "6:cjc124_0943"
    INDEX 01 00:36:11
  TRACK 35 AUDIO
    TITLE "0:"
    INDEX 01 00:37:40
  TRACK 36 AUDIO
    TITLE "5:cjc124_0944"
    INDEX 01 00:38:06
  TRACK 37 AUDIO
    TITLE "0:"
    INDEX 01 00:39:60
  TRACK 38 AUDIO
    TITLE "6:cjc124_0945"
    INDEX 01 00:40:05
  TRACK 39 AUDIO
    TITLE "0:"
    INDEX 01 00:41:40
  TRACK 40 AUDIO
    TITLE "5:cjc124_0946"
    INDEX 01 00:42:18
  TRACK 41 AUDIO
    TITLE "0:"
    INDEX 01 00:44:16
  TRACK 42 AUDIO
    TITLE "6:cjc124_0947"
    INDEX 01 00:44:36
  TRACK 43 AUDIO
    TITLE "0:"
    INDEX 01 00:46:43
  TRACK 44 AUDIO
    TITLE "5:cjc124_0948"
    INDEX 01 00:47:07
  TRACK 45 AUDIO
    TITLE "0:"
    INDEX 01 00:49:04
  TRACK 46 AUDIO
    TITLE "6:cjc124_0949"
    INDEX 01 00:49:25
  TRACK 47 AUDIO
    TITLE "0:"
    INDEX 01 00:51:22
  TRACK 48 AUDIO
    TITLE "5:cjc124_0950"
    INDEX 01 00:51:67
  TRACK 49 AUDIO
    TITLE "0:"
    INDEX 01 00:53:49
  TRACK 50 AUDIO
    TITLE "6:cjc124_0951"
    INDEX 01 00:53:68
  TRACK 51 AUDIO
    TITLE "0:"
    INDEX 01 00:55:22
  TRACK 52 AUDIO
    TITLE "5:cjc124_0952"
    INDEX 01 00:55:65
  TRACK 53 AUDIO
    TITLE "0:"
    INDEX 01 00:57:45
  TRACK 54 AUDIO
    TITLE "6:cjc124_0953"
    INDEX 01 00:57:62
  TRACK 55 AUDIO
    TITLE "0:"
    INDEX 01 00:59:73
  TRACK 56 AUDIO
    TITLE "5:cjc124_0954"
    INDEX 01 01:00:39
  TRACK 57 AUDIO
    TITLE "0:"
    INDEX 01 01:02:01
  TRACK 58 AUDIO
    TITLE "6:cjc124_0955"
    INDEX 01 01:02:30
  TRACK 59 AUDIO
    TITLE "0:"
    INDEX 01 01:03:67
  TRACK 60 AUDIO
    TITLE "5:cjc124_0956"
    INDEX 01 01:04:31
  TRACK 61 AUDIO
    TITLE "0:"
    INDEX 01 01:06:04
  TRACK 62 AUDIO
    TITLE "6:cjc124_0957"
    INDEX 01 01:06:20
  TRACK 63 AUDIO
    TITLE "0:"
    INDEX 01 01:08:09
  TRACK 64 AUDIO
    TITLE "5:cjc124_0958"
    INDEX 01 01:08:44
  TRACK 65 AUDIO
    TITLE "0:"
    INDEX 01 01:10:63
  TRACK 66 AUDIO
    TITLE "6:cjc124_0959"
    INDEX 01 01:11:07
  TRACK 67 AUDIO
    TITLE "0:"
    INDEX 01 01:13:02
